{"title":"Dhadak 2018 Hindi 720p WEBRip x264 ESub [MW]","magnet":"magnet:?xt=urn:btih:6950b1a501293b576301a3cfbe1444c6da615249&dn=Dhadak+2018+Hindi+720p+WEBRip+x264+ESub+%5BMW%5D&tr=udp%3A%2F%2Ftracker.leechers-paradise.org%3A6969&tr=udp%3A%2F%2Fzer0day.ch%3A1337&tr=udp%3A%2F%2Fopen.demonii.com%3A1337&tr=udp%3A%2F%2Ftracker.coppersurfer.tk%3A6969&tr=udp%3A%2F%2Fexodus.desync.com%3A6969","uploader":"MFreaky","categoryP":"video","categoryS":"hd___movies","size":"1349954747","seeders":"17","leechers":"37","description":" <a href=\"https://pichub.site/image/EWxwV\" rel=\"nofollow\" target=\"_NEW\">https://pichub.site/image/EWxwV</a> <a href=\"\nhttps://pichub.site/image/EWUj0\" rel=\"nofollow\" target=\"_NEW\">\nhttps://pichub.site/image/EWUj0</a> <a href=\"\nhttps://pichub.site/image/EW0xT\" rel=\"nofollow\" target=\"_NEW\">\nhttps://pichub.site/image/EW0xT</a> <a href=\"\nhttps://pichub.site/image/EWLTN\" rel=\"nofollow\" target=\"_NEW\">\nhttps://pichub.site/image/EWLTN</a> <a href=\"\nhttps://pichub.site/image/EWpmZ\" rel=\"nofollow\" target=\"_NEW\">\nhttps://pichub.site/image/EWpmZ</a>\r\n\r\nIMDB <a href=\"\nhttps://www.imdb.com/title/tt7638344/\" rel=\"nofollow\" target=\"_NEW\">\nhttps://www.imdb.com/title/tt7638344/</a>\r\n\r\n\r\nVideo\r\nFormat                                   : AVC\r\nFormat/Info                              : Advanced Video Codec\r\nFormat profile                           : High@L4.1\r\nFormat settings                          : CABAC / 5 Ref Frames\r\nFormat settings, CABAC                   : Yes\r\nFormat settings, RefFrames               : 5 frames\r\nCodec ID                                 : V_MPEG4/ISO/AVC\r\nDuration                                 : 2 h 17 min\r\nBit rate                                 : 1 200 kb/s\r\nWidth                                    : 1 280 pixels\r\nHeight                                   : 542 pixels\r\nDisplay aspect ratio                     : 2.35:1\r\nFrame rate mode                          : Constant\r\nFrame rate                               : 24.000 FPS\r\nColor space                              : YUV\r\nChroma subsampling                       : 4:2:0\r\nBit depth                                : 8 bits\r\nBits/(Pixel*Frame)                       : 0.072\r\nStream size                              : 1.13 GiB (90%)\r\nWriting library                          : x264 core 155 r2901 7d0ff22\r\n\r\nAudio\r\nFormat                                   : AAC\r\nFormat/Info                              : Advanced Audio Codec\r\nFormat profile                           : LC\r\nCodec ID                                 : A_AAC-2\r\nDuration                                 : 2 h 17 min\r\nBit rate                                 : 126 kb/s\r\nChannel(s)                               : 2 channels\r\nChannel positions                        : Front: L R\r\nSampling rate                            : 48.0 kHz\r\nFrame rate                               : 46.875 FPS (1024 SPF)\r\nStream size                              : 124 MiB (10%)\r\nLanguage                                 : Hindi","last_updated":"2018-10-05T12:35:30.384Z","parsed":{"xt":"urn:btih:6950b1a501293b576301a3cfbe1444c6da615249","dn":"Dhadak 2018 Hindi 720p WEBRip x264 ESub [MW]","tr":["udp://exodus.desync.com:6969","udp://open.demonii.com:1337","udp://tracker.coppersurfer.tk:6969","udp://tracker.leechers-paradise.org:6969","udp://zer0day.ch:1337"],"infoHash":"6950b1a501293b576301a3cfbe1444c6da615249","infoHashBuffer":{"type":"Buffer","data":[105,80,177,165,1,41,59,87,99,1,163,207,190,20,68,198,218,97,82,73]},"name":"Dhadak 2018 Hindi 720p WEBRip x264 ESub [MW]","announce":["udp://exodus.desync.com:6969","udp://open.demonii.com:1337","udp://tracker.coppersurfer.tk:6969","udp://tracker.leechers-paradise.org:6969","udp://zer0day.ch:1337"],"urlList":[]}}